# xmcd
#
# Track frame offsets:
#	150
#	13980
#	31490
#	43155
#	62790
#	76630
#	94060
#	105732
#
# Disc length: 1669 seconds
#
# Revision: 2
# Processed by: cddbd v1.5.2PL0 Copyright (c) Steve Scherf et al.
# Submitted via: audiograbber 1.83.01
#
DISCID=60068308
DTITLE=Sound Choice - 7744
DYEAR=1900
DGENRE=Karaoke
TTITLE0=LeAnn Rimes - Blue
TTITLE1=Mindy McCready - Ten Thousand Angels
TTITLE2=Lari White - Wild At Heart
TTITLE3=Karla Bonoff and The Nitty Gritty Dirt Band - You Believed In Me
TTITLE4=SC - Demo 1
TTITLE5=SC - Demo 2
TTITLE6=SC - Demo 3
TTITLE7=SC - Demo 4
EXTD=
EXTT0=
EXTT1=
EXTT2=
EXTT3=
EXTT4=
EXTT5=
EXTT6=
EXTT7=
PLAYORDER=
